# xmcd
# 
# Track frame offsets:
#     150
#     23888
#     44120
#     63605
#     85133
#     106625
#     126360
#     147595
# 
# Disc length: 2191
# 
# Revision: 1
# Processed by: cddbd v1.5.2PL0 Copyright (c) Steve Scherf et al.
# Submitted via: fre:ac v1.0.17
# 
DISCID=73088d08
DTITLE=Janice Dempsey - Thirsty
DYEAR=1990
DGENRE=R&B
TTITLE0=Do You Really Want Love?
TTITLE1=Heartbreaker
TTITLE2=Gimme Your Love
TTITLE3=Heart To Heart
TTITLE4=Love Stupid
TTITLE5=Thirsty For Some Kisses
TTITLE6=Make Believe It's Magic
TTITLE7=Checking Him Out
EXTD=
EXTT0=
EXTT1=
EXTT2=
EXTT3=
EXTT4=
EXTT5=
EXTT6=
EXTT7=
PLAYORDER=
